<?xml version="1.0" encoding="UTF-8"?>
<!-- Creator: CorelDRAW X7 -->
<svg xmlns="http://www.w3.org/2000/svg" xmlns:xlink="http://www.w3.org/1999/xlink" xml:space="preserve" width="8in" height="1.49999in" version="1.1" style="shape-rendering:geometricPrecision; text-rendering:geometricPrecision; image-rendering:optimizeQuality; fill-rule:evenodd; clip-rule:evenodd" viewBox="0 0 8000 1500">
 <defs>
  <style type="text/css">
   <![CDATA[
    .fil0 {fill:black}
    .fil1 {fill:#2BB454}
   ]]>
   
  </style>
 </defs>
 <g id="Layer_x0020_1">
  <metadata id="CorelCorpID_0Corel-Layer"></metadata>
  <g id="_1407365130432">
   <g>
    <path class="fil0" d="M2579 427l-107 0 -15 -96c-14,-14 -32,-26 -54,-34 -21,-8 -47,-12 -76,-12 -63,0 -111,23 -145,68 -34,46 -51,105 -51,178l0 25c0,74 17,133 51,179 34,46 81,69 142,69 29,0 55,-4 78,-13 24,-8 42,-19 55,-33l15 -96 107 0 0 142c-29,34 -66,61 -111,81 -45,20 -95,30 -151,30 -97,0 -176,-34 -238,-101 -61,-67 -92,-153 -92,-258l0 -24c0,-104 31,-190 92,-258 61,-67 141,-101 238,-101 56,0 106,11 151,31 45,20 82,47 111,80l0 143zm67 477l0 -86 76 -15 0 -517 -76 -15 0 -87 76 0 145 0 77 0 0 87 -77 15 0 507 203 0 7 -90 110 0 0 201 -541 0zm586 -86l52 -8 219 -626 148 0 218 626 51 8 0 86 -246 0 0 -86 50 -9 -31 -99 -234 0 -31 99 49 9 0 86 -245 0 0 -86zm261 -215l166 0 -82 -253 -3 0 -81 253zm798 -419c82,0 146,18 193,56 46,37 69,89 69,155 0,36 -9,68 -29,95 -19,26 -48,48 -85,64 42,13 73,34 91,63 19,29 28,66 28,109l0 36c0,16 4,28 10,37 6,9 16,14 31,16l18 2 0 87 -75 0c-47,0 -80,-12 -99,-38 -20,-25 -29,-58 -29,-98l0 -41c0,-35 -9,-63 -28,-83 -19,-20 -45,-30 -79,-31l-118 0 0 190 77 15 0 86 -299 0 0 -86 77 -15 0 -517 -77 -15 0 -87 77 0 247 0zm-102 317l100 0c40,0 70,-8 90,-25 20,-17 30,-42 30,-75 0,-32 -10,-58 -30,-77 -19,-19 -49,-29 -88,-29l-102 0 0 206zm475 -230l0 -87 298 0 0 87 -77 15 0 517 77 15 0 86 -298 0 0 -86 77 -15 0 -517 -77 -15zm1012 278c0,106 -30,193 -91,262 -60,69 -139,104 -237,104 -97,0 -176,-35 -236,-104 -59,-69 -90,-156 -90,-262l0 -10c0,-105 30,-192 90,-262 60,-69 138,-104 236,-104 97,0 176,35 237,104 60,70 91,157 91,262l0 10zm-144 -11c0,-75 -16,-136 -47,-182 -31,-46 -77,-70 -137,-70 -61,0 -106,23 -136,70 -30,46 -45,106 -45,182l0 11c0,76 15,137 45,184 31,46 76,69 136,69 61,0 107,-23 138,-69 30,-47 46,-108 46,-184l0 -11zm938 -354l0 87 -77 15 0 618 -144 0 -291 -485 -3 1 0 383 77 15 0 86 -298 0 0 -86 76 -15 0 -517 -76 -15 0 -87 76 0 145 0 291 485 3 -1 0 -382 -77 -15 0 -87 221 0 77 0zm294 87l0 -87 299 0 0 87 -77 15 0 517 77 15 0 86 -299 0 0 -86 78 -15 0 -517 -78 -15zm988 -87l0 192 -111 0 -6 -81 -132 0 0 508 77 15 0 86 -299 0 0 -86 77 -15 0 -508 -132 0 -6 81 -110 0 0 -192 642 0z"></path>
    <path class="fil0" d="M2065 1223l46 0c14,0 26,-2 38,-6 11,-4 21,-10 30,-17 8,-7 15,-16 19,-26 5,-10 7,-22 7,-34 0,-13 -2,-25 -7,-36 -4,-10 -11,-19 -19,-26 -9,-8 -19,-13 -30,-17 -12,-4 -24,-7 -38,-7l-91 0 0 273 45 0 0 -104zm0 -37l0 -95 46 0c8,0 14,1 20,4 7,2 12,5 16,10 4,4 7,9 9,15 3,6 4,13 4,20 0,7 -1,13 -4,18 -2,6 -5,11 -9,15 -4,4 -9,7 -16,10 -6,2 -12,3 -20,3l-46 0zm439 35l52 106 48 0 0 -3 -58 -114c7,-3 14,-7 20,-12 6,-4 12,-10 16,-16 4,-6 8,-13 10,-20 3,-8 4,-16 4,-26 0,-13 -3,-25 -7,-35 -5,-11 -12,-19 -20,-26 -9,-7 -19,-12 -31,-15 -12,-4 -25,-6 -39,-6l-86 0 0 273 45 0 0 -106 46 0zm-46 -37l0 -93 41 0c8,0 15,1 21,3 7,2 12,5 16,9 5,4 9,9 11,14 2,6 4,13 4,21 0,7 -2,13 -4,19 -2,5 -5,10 -9,14 -5,4 -10,7 -16,10 -7,2 -14,3 -22,3l-42 0zm357 -130l0 38 57 0 0 198 -57 0 0 37 160 0 0 -37 -58 0 0 -198 58 0 0 -38 -160 0zm454 273l44 0 84 -273 -49 0 -53 189 -4 16 -5 -16 -52 -189 -49 0 84 273zm463 -63l19 63 46 0 -87 -273 -40 0 -88 273 46 0 19 -63 85 0zm-74 -39l32 -107 31 107 -63 0zm531 -133l0 -38 -212 0 0 38 83 0 0 235 45 0 0 -235 84 0zm363 112l0 -36 -113 0 0 -76 131 0 0 -38 -176 0 0 273 177 0 0 -37 -132 0 0 -86 113 0zm656 86l0 -236 -45 0 0 273 175 0 0 -37 -130 0zm354 -236l0 38 57 0 0 198 -57 0 0 37 160 0 0 -37 -58 0 0 -198 58 0 0 -38 -160 0zm442 0l-56 0 0 273 43 0 0 -93 -3 -117 38 126 23 0 42 -130 -2 121 0 93 42 0 0 -273 -56 0 -37 117 -34 -117zm349 0l0 38 57 0 0 198 -57 0 0 37 161 0 0 -37 -58 0 0 -198 58 0 0 -38 -161 0zm583 38l0 -38 -212 0 0 38 83 0 0 235 45 0 0 -235 84 0zm362 112l0 -36 -112 0 0 -76 130 0 0 -38 -175 0 0 273 176 0 0 -37 -131 0 0 -86 112 0zm234 123l69 0c13,0 24,-2 35,-5 11,-3 21,-7 30,-13 8,-5 15,-11 22,-18 6,-8 12,-16 16,-24 5,-10 9,-20 11,-31 3,-11 4,-22 4,-35l0 -21c0,-13 -1,-25 -4,-36 -3,-12 -7,-22 -11,-31 -5,-10 -11,-18 -19,-25 -7,-7 -15,-14 -24,-18 -9,-5 -18,-9 -28,-12 -11,-2 -22,-4 -33,-4l-68 0 0 273zm46 -236l22 0c7,0 14,1 20,3 6,1 12,3 17,6 6,4 12,9 17,15 5,6 9,13 12,21 3,6 4,13 6,20 1,8 2,15 2,24l0 21c0,9 -1,17 -2,24 -2,7 -3,14 -6,20 -2,8 -6,14 -10,20 -5,5 -9,10 -15,14 -5,4 -11,6 -18,8 -7,2 -14,3 -22,3l-23 0 0 -199z"></path>
   </g>
   <g>
    <path class="fil1" d="M1102 604c0,0 0,0 0,0l0 0c0,0 0,0 0,0zm-226 -536l1 8c-11,2 -10,2 -21,2 -3,0 -7,-2 -11,-2 1,-5 7,-7 6,-13 -8,2 -11,4 -16,6 -2,0 -2,0 -4,1 -7,2 -14,4 -21,5l-17 5c-2,0 -3,0 -5,0 -3,1 -2,1 -5,1 0,-3 1,-4 3,-6l3 -5c-6,-3 -18,-4 -25,-2 -6,2 -8,1 -17,5l-23 7 -13 0c-4,0 -4,-2 -8,-2 -1,5 5,9 -3,8 -5,0 -6,-1 -9,-3 -7,-5 -8,-2 -12,-2 -3,0 -2,-1 -5,-1 -2,0 -12,11 -16,12 -4,2 -4,0 -8,3l-12 7c0,0 0,0 0,0l-33 16 -29 12c-2,0 -6,2 -8,2 0,3 -2,6 -3,9l-4 10c-2,3 -4,7 -8,7 -2,-5 -6,-10 -12,-8 -2,0 -4,2 -6,4l-3 2c-6,3 -7,-2 -13,7l-8 7c0,0 -1,1 -1,1 -3,1 -7,1 -11,1 0,-2 0,-3 -1,-5 -4,1 -6,2 -9,3 -5,1 -6,0 -11,2 0,9 -1,8 -5,15 -7,13 -3,6 -4,12 0,4 -3,6 -6,7l0 5c-3,2 -3,2 -6,4 0,0 0,0 0,0l-6 6c-9,6 -9,2 -17,-3 -2,1 -4,2 -6,4 0,0 -1,0 -1,0 -2,1 -2,-1 -2,5 0,2 2,4 2,9 0,4 -2,1 -5,2 1,2 1,1 1,2 2,5 2,7 -3,11l-5 4c-6,4 -5,9 -5,16 -3,0 -1,0 -3,1 -4,3 -8,5 -12,9 -1,1 -2,3 -4,4 -3,4 -9,10 -13,13 -9,7 -16,6 -17,8 -1,2 -2,17 -3,21 -1,5 -2,9 -5,13 -2,2 -3,3 -4,5l-2 0c0,-5 1,-8 -4,-8 -3,-1 -6,2 -7,4 -2,3 -1,7 -1,11 0,7 -2,3 -7,5l-27 17c-3,1 -3,3 -3,6 0,5 6,11 11,13l7 3c-1,2 -3,3 -5,4 -2,1 -2,2 -3,3 -4,7 -2,19 -3,28l-2 7c-2,4 -5,8 -10,9 -2,-4 -3,-19 -11,-17 -1,0 -5,3 -5,3 -6,2 -6,-1 -8,6 -2,6 -2,7 0,13 1,3 1,4 2,6 0,1 0,1 0,1 0,0 0,0 0,0l2 5c1,3 1,5 0,8 0,4 -6,9 -1,10 2,0 6,0 8,0 4,1 4,1 7,-1 0,8 -4,2 -2,18 1,9 -2,8 -9,8 0,13 -2,10 -2,19 0,2 1,2 1,3 4,5 11,-1 6,8 -12,20 -5,52 -10,69 0,2 0,1 -1,3 -1,2 0,2 -1,4 -1,5 -3,9 -6,13l-2 2c-2,2 -6,5 -9,6l5 15c2,2 7,2 9,1 3,-2 -1,-2 3,-3l-1 4c-2,3 -4,3 -8,3 -4,0 -7,-3 -11,-3 -2,7 -2,9 2,15 1,3 3,3 5,5 7,6 15,9 22,16 3,3 6,10 6,15 0,4 -8,2 -9,7 1,11 2,8 8,13l6 5c1,1 1,1 3,2 4,3 3,3 3,7 0,9 -14,11 -21,11 -11,0 -9,3 -5,11 2,4 5,10 8,13 3,2 5,3 7,5 -2,3 -6,7 -7,10 -1,4 1,3 3,4 3,1 1,-1 3,2 1,2 3,4 3,7 -3,1 -2,2 -2,5 0,4 2,7 3,10 2,3 3,5 7,7 3,-2 5,-4 5,-8l1 -8c0,-1 0,-6 1,-8 2,1 2,1 4,3 2,3 4,6 7,8 1,1 3,2 4,3 -1,5 -4,-1 -4,12l8 21c1,2 3,4 6,5 -2,2 -7,9 -7,11 0,7 1,6 5,10 2,4 8,4 12,3 6,-2 6,-3 13,-3l1 6c-5,0 -10,-1 -15,-1 0,10 2,16 2,21 7,-3 10,-1 17,3 3,2 8,9 11,11 5,6 6,6 15,6l4 20c0,3 2,5 2,6 0,4 -2,1 -1,5 2,9 8,15 16,19 2,2 7,2 8,4 1,2 -1,0 2,3 4,5 8,8 13,12 3,2 6,3 10,3 0,6 -3,5 -7,8 -5,6 -4,12 -7,18 -8,12 1,9 7,13 4,3 10,6 16,5 7,-1 18,-4 19,-12 3,2 2,6 15,16 2,2 5,5 8,6l16 12c1,1 1,1 2,2 4,2 13,13 15,16 1,2 2,4 2,6 2,3 1,2 4,4 4,-1 7,-3 10,-3 3,0 0,0 2,0 4,2 7,6 10,8 5,4 12,8 16,11 4,1 2,0 4,2 2,1 4,2 7,3l5 3c0,0 0,0 0,0 1,1 1,1 1,1l4 1c5,2 9,5 14,8l22 15 8 7c0,0 0,0 0,0 2,2 7,8 7,10 0,2 -1,1 -2,2l-3 2c0,4 -1,4 -1,8 0,3 1,5 1,9 4,1 0,0 3,0 7,0 6,12 12,4 5,-7 5,-13 5,-21 0,-4 -2,-5 -3,-8 2,1 1,1 2,1 2,1 0,0 2,1l14 4c4,1 9,2 13,4 2,1 3,1 4,2 1,0 3,1 4,1 1,1 3,2 4,2l11 7c2,1 2,0 4,2 2,2 1,4 6,5 2,-4 1,-6 7,-6 0,7 0,13 6,18 5,3 12,4 18,4 5,0 6,-4 6,-8l3 0c0,2 1,4 1,6 2,4 5,4 7,1 4,-4 6,-15 13,-9 4,2 -2,-3 1,0l1 1c1,2 3,11 3,14 2,0 1,0 3,0 1,0 15,-7 17,-8 4,-2 5,-2 9,-2 11,-2 17,-6 24,7l5 7c1,2 1,2 2,4 2,2 3,3 5,1 6,-2 10,-6 10,-13l19 8c5,2 13,5 18,8 4,3 5,6 9,9l6 -5c0,0 1,0 1,-1 0,0 0,0 0,0l12 -9c3,-2 5,-4 9,-5 2,-1 0,0 2,-2l11 -6c6,-2 9,-5 14,-6 5,-2 10,-4 15,-7 6,-2 12,-3 18,-6l9 -2c7,-4 19,-5 26,-8l10 -3c0,0 1,0 1,0 3,-1 8,-3 11,-3 7,-1 -3,8 8,8 7,0 5,-7 5,-14l2 0c1,2 1,2 1,4 1,1 1,0 1,1l1 1c3,4 7,8 9,12 1,3 0,5 0,9 9,0 10,-3 16,-7 0,0 0,0 1,-1 2,-2 -2,4 0,-1 3,-5 4,-11 6,-16 2,-6 4,-7 6,-11 -2,-2 -3,-1 -3,-5l11 -4 6 -9c3,0 3,1 4,3 1,2 1,4 2,6 1,6 1,9 4,11 1,-1 2,-3 3,-5 1,-2 1,-3 3,-5 8,2 7,8 7,14 0,4 -2,5 -2,7l-2 8c-4,12 -6,27 7,36l7 -6c1,-1 2,-1 3,-2 6,8 6,8 2,17 -2,3 -4,5 -5,9 5,3 6,1 12,1 8,-11 9,-25 4,-38 -3,-7 -4,-5 -8,-10 3,-4 7,-7 7,-13 0,-5 1,-11 0,-16 -1,-2 -1,-2 -2,-3 2,0 4,1 6,1 1,1 2,1 3,1 1,0 0,0 1,-1 6,-1 7,-3 11,-7l7 -11c2,-3 5,-3 5,-7 -13,-1 -10,-27 -5,-27 3,0 1,1 4,1 4,13 2,16 14,10 0,-16 7,-24 -6,-28 -4,-1 -3,-1 -3,-4 0,-10 11,-7 17,-12 2,-2 1,-4 5,-5 5,3 5,14 7,20 2,6 3,15 12,15 9,0 1,-8 2,-13 0,-3 0,-3 0,-7 0,-1 0,-1 1,-3 0,-2 1,0 1,-2 0,-19 -2,-11 -3,-19 0,-1 -1,-2 1,-1 2,1 1,1 2,2l3 4c0,0 0,1 0,1 2,4 1,5 4,10 11,-3 10,-27 17,-27 3,0 14,10 9,0l-4 -9c4,0 4,1 10,1 8,0 12,6 17,-3 2,-6 7,-22 14,-22 6,0 3,3 8,4 4,-2 11,-13 11,-17l0 -4c0,-3 -7,-8 -10,-8 -3,0 -6,5 -9,5l2 -18c0,0 0,0 0,0 3,0 1,0 3,2 2,1 1,1 3,1 3,-4 8,-12 8,-17 1,0 16,10 7,-7l-3 -6c2,-2 3,-6 6,-6 2,0 1,0 3,1 11,4 10,11 21,4 0,11 -7,18 3,14 2,-1 4,0 6,-1 0,0 3,-1 3,-1 11,-7 2,-15 -6,-34 -5,-11 -9,-16 0,-16 5,0 5,2 5,7 0,2 0,8 1,10 2,1 22,3 30,-7 4,-4 5,-7 5,-13 0,-3 -1,-7 -2,-10 -1,-4 -3,-5 -3,-9 -5,0 -3,-2 -8,-2l0 -2c2,0 5,-2 7,-2 3,0 3,2 4,3 2,2 2,3 5,4 6,-12 -2,-10 -7,-16 -3,-3 -2,-4 -2,-8 6,0 9,-3 14,-3 4,-1 10,-3 14,-5 18,-5 17,-7 20,0l3 10c0,2 1,3 1,5 1,5 1,6 6,5 0,-4 0,-5 3,-5 2,3 1,3 4,6 3,4 12,1 15,4 3,1 3,3 6,5 3,-1 3,-1 4,-5 1,-3 2,-3 2,-6 1,-8 2,-2 2,-16 -7,-1 -13,-1 -18,-6l-7 -11 -5 -20c0,-1 0,-1 -1,-2 -1,-5 -3,-9 -9,-12 -1,-1 -3,-2 -3,-4 0,-6 10,-8 15,-8 3,0 6,1 9,1 3,0 17,1 19,0 8,-3 4,-21 1,-24 -3,-3 -3,-2 -6,-3 -4,-3 -7,-6 -10,-8 -5,-3 -4,-4 -6,-9 0,-1 -1,-1 -1,-1 -1,-3 -3,-6 -3,-9 0,-4 4,-8 6,-10 0,3 1,5 3,7 2,2 0,1 3,1 8,3 25,-4 27,14 -8,1 -12,11 -12,15 1,4 5,2 9,3 4,1 9,3 12,3 6,0 11,-5 13,-10 0,-1 0,-1 0,-3 0,-1 4,-7 4,-15 0,-2 0,-3 0,-5 -1,-8 -9,-11 -12,-11 -7,1 -4,9 -10,9 -1,-5 -3,-1 3,-13 2,-4 1,-2 3,-5 5,-5 11,-9 7,-17 -1,-1 -1,0 -2,-2 -1,-2 -2,-2 -3,-5l-4 0c-4,15 -26,10 -26,5 0,-22 2,-10 8,-8 2,-2 7,-9 7,-10 0,-6 -1,-7 -5,-10 -5,-6 -6,-17 0,-19l9 -2c5,-1 4,-2 10,-2 2,0 2,1 2,2 2,3 1,5 1,7 -2,5 -7,15 -7,17 0,6 -1,10 5,12 0,0 0,0 0,0l1 1c2,1 1,1 3,1 11,-7 1,-34 11,-37 -1,3 -1,5 -1,9 5,1 2,0 7,-1l20 -6c2,-2 3,-5 5,-6 4,2 1,4 6,6 3,-2 4,-8 13,-14 2,-1 2,-1 3,-1l17 0c5,0 15,4 15,-2l0 -8c0,-4 0,0 -1,-2 -2,-4 -1,-7 -6,-9 -6,-2 -12,1 -19,1 -2,0 -2,-1 -5,-1 1,-5 6,-15 7,-22 0,-3 0,-2 0,-5 2,-6 2,-16 1,-22 -1,-3 -1,-5 -1,-8 -1,-5 -5,-8 -5,-14 3,0 6,-1 8,-2 0,-6 0,-16 -2,-21 -2,-5 0,-3 -4,-5 -1,1 -1,1 0,3 -3,0 -3,-1 -3,-4 -1,-3 -2,-3 -2,-7l3 0c1,8 10,2 14,0l7 -4c2,-1 3,-2 4,-2 3,-1 7,-1 7,-5 0,-4 -3,-9 -3,-13 -2,-6 -7,-27 -10,-33 -4,-9 -8,-1 -10,0 -6,4 -19,9 -21,0 3,0 1,-1 4,-1 2,0 3,4 11,2 0,-1 -3,-9 -3,-9 -1,-1 -8,-3 -12,-5 -1,-1 -2,-2 -4,-3 -2,-1 -4,-3 -5,-6 9,0 14,-5 20,-10 0,0 0,0 0,0 3,-2 6,-3 7,-7 -3,-2 -2,-1 -6,-1 -12,0 -14,-2 -29,-3 -4,0 -4,0 -8,0 -6,-1 -8,0 -14,-2 1,-4 9,-6 11,-11 1,-2 0,-3 0,-6 -8,0 -1,2 -19,2 -3,0 -2,-1 -3,-3 -4,-8 -9,-16 -5,-26 0,-1 1,-2 1,-3 1,-2 4,-5 5,-6 10,-10 9,-2 14,-2 2,-1 5,-3 5,-6 0,-4 -6,-9 -9,-10 -3,-1 -5,-2 -7,-3 -4,-3 -3,-4 -6,-5l0 -2c5,-1 2,-6 0,-8 -1,-1 -3,-2 -4,-3 -4,-2 -8,-2 -12,-2 -3,0 -8,4 -11,6 -2,3 -3,3 -4,7 -13,0 -19,-13 -24,-14l0 -2c7,1 8,-2 15,-5 3,-1 3,-1 3,-4 -5,0 -7,-1 -12,-2 -5,-1 -10,-1 -15,-3 -4,-1 -8,-2 -11,-4l-6 -3c-5,-2 -9,-5 -14,-5l0 -2c3,-1 8,-3 11,-4 1,0 1,0 1,0 0,-1 1,-1 1,-1 2,0 1,0 2,-1 3,-3 -1,-11 -4,-13 -3,-5 -13,-10 -18,-13 -2,0 -4,-1 -6,-2 -3,-1 -2,-1 -6,-1 0,5 3,6 -1,15 -7,-2 -14,-8 -19,-8l0 -2c2,0 2,0 3,-1 8,-3 12,-1 12,-8 0,-3 -2,-5 -4,-7 -3,-4 -1,-7 -3,-10 -4,1 -13,16 -10,-2 1,-4 1,-4 2,-7 1,-7 -3,-3 -3,-12 -5,-1 -12,-1 -18,-1 -1,-2 0,-1 -1,-4 -4,0 -6,-1 -10,-2l-13 -5c-9,-5 -18,-9 -25,-17l-8 -8c-1,-3 -2,-8 -5,-8 -2,0 -4,3 -6,4 -2,1 -5,2 -7,3 -4,1 -26,8 -15,-1l4 -4c0,0 0,-1 0,-1 2,-2 5,-3 4,-7 0,-2 -1,-4 -3,-5l-6 -6c-3,-4 -2,-4 -8,-4 -4,0 -7,1 -9,-1 -3,-2 -5,-5 -5,-8 0,-2 6,-5 9,-8 0,0 0,0 0,-1l3 -3c5,-9 2,-12 -8,-12 -4,0 -6,1 -7,4 -5,0 -11,1 -15,2 -11,3 -6,6 -12,6 -2,0 -4,-1 -6,-2 -2,1 -1,0 -2,3l-12 -5c-7,-5 -1,-14 2,-18l11 -19c-6,0 -8,4 -12,7l-14 12c-2,2 -1,2 -4,3l0 -3c-4,1 -5,4 -7,6 -7,5 -13,-13 -20,-3 1,2 4,4 6,7l11 13c0,0 0,0 0,0l13 17c1,1 2,1 3,3 7,11 15,21 21,33l19 35c1,1 0,1 1,2l12 27c0,0 0,0 0,1 0,0 0,0 1,0l8 23c0,0 0,0 0,0l6 19c1,2 1,4 2,6 0,2 1,3 2,5 0,2 0,3 0,5l4 11c0,1 0,1 0,3 0,0 0,1 0,1 1,2 1,1 1,2l4 22c1,4 2,5 2,11 0,6 0,8 1,13 1,4 1,8 0,12 0,6 1,8 2,12 0,5 0,9 0,13 2,10 0,29 0,39 0,5 -2,9 -2,15l-2 30c0,3 -1,4 -1,6 0,3 0,5 -1,8l-4 27c-1,5 -2,10 -3,14 -2,3 -1,3 -1,7 -1,4 -3,8 -4,12l-7 29c-2,6 -1,2 -2,5l-3 10c-2,4 -3,9 -4,13 -1,2 -1,0 -1,3 -1,0 0,0 -1,1 0,2 0,0 0,2l-2 3c0,0 0,1 0,1 -1,2 -2,6 -4,9 0,0 0,0 0,0l-5 13c-3,9 -7,17 -11,26l-17 33c-1,0 -1,1 -1,1l-5 9c-5,8 -11,16 -16,24l-24 35c0,0 0,0 -1,0 0,0 0,1 0,1l-4 5c-1,1 -1,1 -2,2 -4,6 -11,12 -15,17 0,1 0,1 -1,1l-7 8c-2,2 -2,3 -4,4l-16 16c0,0 0,1 0,1 -1,1 -2,1 -3,2 0,1 0,0 -1,1 -9,8 -18,17 -28,24l-9 7c-2,1 -3,3 -5,4 -1,0 -1,0 -2,1 -1,0 -2,1 -2,2l-25 16c-1,0 -2,1 -3,2l-41 21c0,0 -1,0 -1,0l-5 2c-6,3 -13,6 -20,8 -4,1 -6,3 -9,4 -2,0 -2,0 -3,0l-13 5c-1,0 -1,0 -2,0l-2 1c-6,2 -12,3 -19,5 -2,0 -4,1 -6,2 -4,1 -3,0 -8,0 -8,1 -1,4 -13,1 -3,-1 -6,0 -8,-1 -2,0 -3,-2 -13,-3l-14 -3c-6,-1 -8,-2 -14,-2 -5,0 -2,-1 -6,-2 -2,0 -6,0 -9,0 -22,0 -44,0 -67,0 1,-1 1,-1 3,-2 0,-13 -5,-3 -6,-2 -4,4 -12,2 -16,2l-10 -2c-14,-4 -6,-3 -25,-3 -3,0 -3,5 -8,3 -1,0 -3,-1 -5,-2l-39 -18c-3,-2 -2,-2 -4,-3l-15 -8c-5,-2 -9,-6 -14,-8l-8 -5c-3,-2 -2,-1 -4,-3l-30 -22c-1,-1 -1,0 -2,-1l-20 -17c0,0 0,-1 0,-1l-13 -12c0,0 0,0 0,0l-5 -6c-2,-1 -2,-2 -4,-4l-3 -3c0,0 0,0 0,0l-23 -27c-1,-2 -1,-3 -3,-5 -1,-1 -1,-1 -3,-3l-2 -4c-3,-2 -3,-5 -6,-8l-10 -16c-1,-1 -2,-5 -4,-6l-1 -1c0,0 0,0 0,0 5,-2 0,-2 5,-3 2,-1 3,0 6,0 3,-5 2,-2 2,-9 -1,-3 -1,-3 -3,-5l-3 -2c-1,-1 -1,-1 -2,-1l-14 -9c2,-4 7,-5 -8,-16 0,0 -2,-2 -3,-2 0,0 -3,-1 -3,-1 -3,-1 -6,0 -6,3l-3 0c0,-5 -3,-8 -5,-13 -2,-4 -5,-10 -6,-14l-2 -7c-4,-9 -5,-20 -7,-26 -2,-3 -1,0 -2,-4 0,-3 0,-6 -1,-9l-1 -5c-1,-3 -1,-3 -2,-7l-1 -12c-2,-11 -3,-32 -2,-44 0,-3 1,-5 0,-9 0,-4 3,-30 4,-34l3 -14c0,-4 1,-5 2,-9l3 -13c1,-2 1,0 1,-2 0,0 0,0 0,0l10 -26c0,-2 0,-3 1,-4l3 -7c0,-1 0,-1 0,-1l5 -9c0,-1 0,-1 1,-3 0,-1 2,-5 3,-7l38 -57c0,0 1,-1 1,-1l6 -7c5,-7 11,-12 16,-17l2 -2c7,-7 13,-14 21,-20l9 -7c3,-3 6,-6 9,-8 2,-1 1,0 3,-2l44 -29c2,-1 4,-3 7,-4 7,-3 14,-8 22,-11l32 -13c3,-1 5,-1 8,-3 4,-1 5,0 9,-2 3,-2 31,-9 35,-9 10,-1 20,-4 30,-5 26,-1 39,-1 65,1 11,1 23,2 33,5l19 5c1,1 4,1 6,2l11 3c6,3 15,6 19,8 2,1 1,1 2,2l16 9c0,0 0,0 0,0l15 10c7,5 26,21 31,27l1 2c5,4 11,9 15,14 0,0 0,0 0,0l20 24c0,1 1,1 1,2 1,1 1,1 2,2 5,6 11,15 14,22 2,4 5,6 7,10 3,6 6,10 8,16l3 7c3,7 10,25 10,32 1,2 1,5 1,7 0,2 0,4 0,7 0,2 1,2 1,6 0,16 -1,10 -2,16 0,7 1,15 0,22 -1,3 -2,2 -2,6 0,8 -1,8 -1,13 0,5 -2,9 -3,13l-3 12c0,2 0,2 -1,3 -2,4 -3,10 -4,15 -6,14 -12,29 -20,42l-13 21c-2,3 -1,1 -3,5 0,0 0,0 0,0 -2,3 -5,5 -6,8 -3,4 -8,7 -9,12 -3,0 0,-1 -2,1l-16 17c0,0 -1,0 -1,0l-8 8c-1,1 -1,1 -1,1 -1,1 -2,1 -3,2l-50 35c-12,6 -18,9 -31,13l-6 2c-1,0 -1,0 -2,0l-8 3c-2,1 -4,1 -7,1 -3,1 -3,1 -7,2l-6 1c-3,0 -6,0 -8,0 -15,2 -13,2 -28,2 -12,0 -13,-2 -18,-2 -2,0 -4,0 -6,0 -3,-1 -1,-1 -6,-1 -6,-1 -11,-2 -16,-4 -4,-2 -5,-1 -8,-3l-20 -8c-1,0 -1,0 -1,0l-3 -1c-5,-2 -8,-5 -13,-7 0,0 -2,-1 -2,-1 -5,-4 -9,-6 -13,-10l-27 -21c0,0 -1,-1 -1,-2 -3,-3 -9,-6 -10,-11l-2 0c0,-1 -1,-2 -2,-3l-6 -9c-1,-1 -2,-1 -3,-2 -1,-2 -1,-2 -1,-4l-5 -6c-4,-7 -12,-18 -14,-26 2,1 7,1 9,2 6,4 5,4 12,6l57 27c1,0 1,1 1,1 0,0 0,0 0,0l2 1c0,0 0,0 0,0 1,0 1,0 1,0l8 3c5,3 11,5 16,8 1,0 4,2 10,2 9,0 15,2 23,2l17 0c7,0 11,-1 16,-2 7,0 7,1 12,-1 3,0 6,0 9,-1l35 -10c0,0 0,-1 0,-1 0,0 1,0 1,0 0,0 0,0 1,-1 6,-3 4,0 13,-5l4 -3c0,0 0,0 0,0 1,0 1,0 1,0 0,0 0,0 0,-1l6 -3c3,-1 2,0 3,-2l5 -3c0,0 0,0 0,0l8 -7c5,-4 9,-8 13,-13 4,-4 11,-10 13,-14 3,-4 6,-13 8,-18l5 -11c1,-3 3,-14 3,-18 0,-6 -1,-12 1,-16 12,0 10,3 20,-3 0,-6 1,-7 1,-10 -1,-3 -1,-7 -2,-10 0,0 0,0 0,0 0,0 0,0 0,-1 0,0 0,0 -1,0l-2 -10c-1,-2 -1,-3 -2,-6 0,-3 -2,-6 -3,-8l-8 -25c-4,-10 -9,-19 -13,-29l-3 -6c-2,-4 -4,-8 -7,-12 -3,-3 -1,-1 -2,-4l-16 -23c-2,-3 -3,-5 -6,-7 0,-1 -1,-1 -1,-1l-29 -27 -21 -14c-1,-1 -2,-1 -2,-1l-23 -11c-1,-1 -3,-2 -4,-2l-9 -3c-1,0 -3,-2 -8,-2 -6,-2 -12,-4 -18,-5 -5,-1 -7,-2 -12,-2l0 -2c3,-1 4,-1 4,-5 -8,-2 -4,-2 -14,1 -6,1 -13,5 -18,9 -6,4 -13,10 -20,13 -1,1 0,0 -2,1l-7 3c-5,2 4,-9 -7,-10 0,4 -1,4 -2,6 -3,4 -6,6 -10,8l-16 11c-4,4 -5,8 -8,10 -7,-2 -16,-9 -23,-9 -8,0 -2,18 -6,33 -1,2 0,1 -1,2l-9 16 -23 23c-2,1 -3,2 -4,2l-2 3c0,0 -1,0 -1,0l-13 16c-1,1 0,1 -1,2 -1,3 -4,6 -5,10 0,3 -2,6 -2,9 -2,-1 -3,-3 -6,-3 -2,3 -3,7 -4,11 -1,2 0,3 0,5 -1,4 -2,6 -3,8 0,7 0,13 -1,19l-3 18c-1,13 -2,60 0,73 1,4 1,9 2,13 1,2 1,4 1,6 2,8 0,4 3,12 1,2 0,2 1,3l6 21 6 9c3,8 0,3 5,11l2 5c-4,-1 -8,0 -11,1l-4 3c0,0 -4,1 -4,3 0,4 8,-1 18,7 1,1 2,1 3,2l3 3c3,2 5,6 8,6 0,5 2,4 5,7 13,11 -3,11 13,21 6,4 10,5 11,6l14 9c0,0 1,0 1,1 1,1 -1,0 1,1 1,1 0,1 3,2 1,3 1,1 2,4 0,3 -1,2 2,3 5,2 5,0 9,4 2,3 3,5 4,8 1,1 2,2 3,3 3,4 10,3 14,2 0,5 -1,16 3,16 2,0 4,-3 8,-4 2,2 3,3 4,5l4 8c1,1 2,2 2,3 4,7 10,7 17,6 1,-1 0,0 0,-3 6,0 9,3 14,7 4,3 8,5 12,8l3 2c0,0 0,0 0,0 3,1 8,1 14,2l8 2c3,1 5,2 9,2l0 1c-9,1 -9,9 -6,15 3,5 23,1 29,1 5,0 8,-1 12,-1 4,-1 8,0 12,-1 3,-1 6,-1 10,-2 2,-2 5,-1 8,-2l2 0c2,-1 4,-1 5,-1 3,-1 3,-1 5,-2l8 -1c4,-1 7,-1 10,-3l12 -3c2,-1 6,-3 9,-4 3,-1 6,-1 9,-3 2,-1 3,-2 6,-3l55 -28c5,-3 11,-6 15,-10 3,-2 6,-3 9,-6 1,-1 1,-1 2,-1l22 -18c2,-2 0,0 2,-2 1,0 1,0 2,-1 0,0 0,0 0,0 0,0 0,0 0,0 1,-1 1,-1 1,-1l15 -14c0,0 0,0 0,0 0,0 1,0 1,-1l0 0c4,-4 10,-3 15,-5 11,-4 12,3 16,-5l14 -27c1,-3 3,-5 3,-9 3,0 10,-5 12,-6l6 -8c4,-7 0,-20 0,-20 0,-4 2,-6 3,-9 0,-1 0,-1 1,-2 0,-1 0,0 1,-1 0,4 1,7 4,9 2,2 3,4 8,4 2,-6 0,-4 0,-6l0 -9c0,-3 1,-4 1,-6 0,-5 1,-5 2,-9 1,-2 1,-1 1,-3 1,-2 1,-4 2,-6l4 -18c2,1 2,2 3,4 0,2 0,-1 1,2 2,0 2,-1 4,-1 0,-15 -3,-10 4,-26 3,-6 8,-14 9,-21 1,-2 0,-5 0,-7 2,0 1,0 2,1 1,1 2,3 2,3 5,4 6,-1 7,-3 0,0 0,0 0,0l1 -3c0,0 0,0 0,0 0,0 1,0 1,-1 7,-15 -15,-14 -13,-21 0,-2 0,1 0,-1 0,-2 0,-3 0,-5 3,1 4,4 8,5 3,-2 4,-1 2,-6 -2,-7 -5,-14 -5,-22 0,-5 1,-6 0,-11 -2,-8 -1,-28 -1,-38 0,-3 0,-4 -2,-5l0 -6c4,0 3,-3 3,-6 0,-3 -1,-4 -1,-8 0,-6 1,-16 -1,-21 -1,-3 0,-10 -1,-15 -1,-3 -1,-1 -2,-4l-2 -8c-2,-5 -3,-12 -6,-16 1,-1 1,-2 2,-3 2,-3 3,-5 7,-6 4,-2 8,-5 8,-10 0,-6 -1,-10 -4,-13 -9,0 -8,0 -13,-5l-2 -1c-3,-4 -9,-16 -14,-16 -4,0 -9,-1 -10,4l-3 0c0,-7 -2,-12 -4,-18 0,-2 0,-4 -1,-6 -3,-6 -5,-15 -9,-21l-4 -7c-1,-1 -1,-2 -2,-3 -2,-3 -4,-4 -4,-7 7,-1 9,-8 13,-11 2,-2 3,-2 5,-3 8,5 8,4 9,-6 0,-4 0,-2 0,-5 1,-2 1,-3 2,-4 5,1 3,7 9,7 2,0 3,-1 3,-3 0,-2 -3,-4 -4,-6 -5,-5 -13,-11 -19,-17l-5 -6c-1,-1 -2,-1 -3,-2 -2,-3 -3,-6 -8,-7 -4,-1 -9,0 -13,-1 -2,0 -2,-1 -4,-1 -1,0 -5,0 -8,0 -7,0 -3,-1 -8,-2 -4,-1 -8,0 -12,-1 -2,-1 -3,-1 -4,-1 -8,-2 -13,-5 -15,-5l0 -3 5 -3c2,-1 2,-4 3,-6 5,-12 9,-13 -16,-9 -2,1 -4,0 -6,1 -6,0 -23,5 -30,4 0,-5 7,-16 -3,-16 -1,0 -4,3 -6,4 -2,1 -7,2 -9,2 -2,0 -2,-1 -4,-2 -12,-6 -27,-12 -26,-27 1,-2 1,-3 2,-4l0 -1c8,0 11,1 9,-6 -17,-4 -5,-3 -24,-3 -3,0 -9,-2 -11,-3 -2,-2 1,-5 -13,-5 -2,0 -9,1 -11,2 -3,1 -6,4 -6,7z"></path>
    <path class="fil1" d="M1654 716c-2,-3 -3,-12 -6,-12 -2,0 -3,2 -8,3 -4,0 -8,0 -9,4 10,0 9,2 10,10 1,6 0,9 -1,14l0 10c0,13 2,6 -10,20l-10 15c-1,2 -1,2 -2,4 0,1 -1,2 -1,3 -3,5 -6,11 -8,17 0,1 0,2 -1,3l-4 11c-1,4 -1,3 -2,7 0,4 -2,7 -3,11l-4 16c0,3 -1,4 -2,7 -4,0 -5,-3 -9,-3 -3,5 -1,9 -3,13 -2,3 -2,8 -4,12 -4,9 -12,15 -14,18 -2,3 -1,4 -5,4 0,4 -9,10 -13,13 -2,2 -4,4 -7,6 -1,1 -2,1 -3,3l-5 4c-2,2 -1,1 -2,2 -2,1 -2,2 -4,3l-2 2c-6,7 -7,6 -17,5 -18,0 -13,16 -14,24 -1,4 -1,7 -3,10l-1 5c-3,6 -5,14 -9,20 0,0 0,0 0,0l-1 2c-1,3 -1,3 -2,5 -1,2 -1,3 -2,5 -5,11 -11,14 -19,21l-1 1c0,0 -1,0 -1,0 -4,3 -10,7 -13,10 -4,4 -10,6 -14,9l-17 9c-1,1 0,1 -2,1l-2 1c-3,1 -1,0 -3,1 0,1 -2,4 -2,4l-26 34 -13 13c-2,2 -2,1 -3,4 -3,0 -5,3 -7,5l-11 10c-1,0 -1,0 -1,1 -4,2 -5,4 -9,7 -3,1 -3,2 -6,4 -1,0 -1,0 -1,1l-5 3c-5,4 -10,7 -15,10 -2,2 -3,3 -6,4 -2,1 -1,0 -3,2 -4,4 -10,6 -15,10l-13 7c-2,1 -1,-2 -1,3 -3,0 -3,0 -4,1l-13 9c-4,1 -1,-2 -4,1l-8 5c-5,4 -11,8 -16,11 -3,1 -1,0 -3,1 0,0 -1,1 -2,2l-16 11c-3,-1 0,-2 -5,-2 0,-2 -1,-4 -2,-5 -1,-1 -4,-3 -5,-4 -1,3 -3,3 -5,5 -2,2 -3,2 -6,4l-2 2c-4,4 -7,5 -11,7l-6 4c-1,1 -2,1 -3,2l-6 4c-1,0 -2,1 -4,1 -8,5 -3,1 -8,4l-30 11c-3,2 -6,1 -8,2 -3,2 -10,4 -13,2 -2,1 0,0 -1,1 -1,1 0,0 -2,1 -3,2 -8,2 -11,2 -4,1 -4,1 -7,2l-8 2c-3,0 -6,0 -7,0 -3,1 -5,1 -8,2l-17 1c-4,0 -1,0 -4,0 -4,0 0,0 -3,1 -4,1 -5,1 -9,1 -6,0 -10,2 -16,2 -12,0 -15,1 -26,2 -5,1 -5,2 -11,1 -5,0 -2,0 -4,1l-14 2c-5,1 -2,1 -7,1 0,-8 0,-3 2,-9 1,-5 2,-11 3,-16 -11,-1 -15,-5 -31,1 0,0 0,0 0,0 -1,0 -1,0 -1,0 -2,1 -2,0 -3,1l-6 5c-1,0 -2,1 -2,1 0,1 0,0 -1,1 -2,4 -1,10 -3,13 -4,0 -7,-1 -10,-2 -12,-1 -23,0 -34,-1 -2,0 -9,-1 -11,-1l-5 -2c-2,-2 -3,-1 -6,-3l-7 -7c-2,-2 1,-1 -2,-2 0,0 0,0 -1,0l-9 -3c-6,-1 -4,0 -10,1 -3,1 -7,1 -10,2 -9,4 -5,3 -15,3 -5,0 -3,2 -8,-1l-24 -11c-1,0 -2,-1 -3,-1 -2,-1 -4,-1 -6,-2 -2,-1 -5,-2 -7,-3l-18 -7c-1,0 -1,-1 -2,-1 0,0 -1,0 -1,0l-23 -8c-3,-1 -4,0 -7,-2 -7,-2 -3,3 -11,-1 -1,-1 -3,-2 -3,-3 1,-2 1,-1 2,-1 3,1 5,2 7,3 7,-5 3,-16 -5,-17 -4,-1 -5,1 -11,-3 -2,0 -2,-1 -4,-1 -3,-2 -18,-9 -21,-9 -3,0 -7,0 -10,0 -1,1 -1,1 -1,3 -2,3 -2,6 -2,10 -4,-2 -4,-4 -8,-6 -6,-5 -3,-4 -8,-7 -3,-3 -5,-4 -9,-5l-7 -5c-2,-1 -1,0 -3,-1 -1,-1 -1,-1 -2,-2l-8 -3c-6,-3 -12,-8 -19,-11 -1,-1 -3,-1 -5,-2l-29 -16c-2,-1 -2,-2 -4,-3 -6,-4 -6,-4 -10,-9 0,0 0,-1 0,-1 0,0 0,0 -1,0 -2,-3 -4,-4 -7,-6 -2,-1 0,0 -2,-1 -3,-2 -6,-5 -8,-8l-10 -13c-4,3 -3,4 -11,2l-12 -3c0,-3 -5,-5 -7,-8 -2,-1 -2,-1 -3,-2l-5 -5c-2,-2 -3,-4 -5,-6 -1,-2 -3,-3 -5,-5 -1,-1 -3,-4 -5,-6l-28 -32c-4,-4 -5,-9 -10,-12 -3,-3 -7,-4 -9,-7 -1,-2 -1,-2 -2,-4l-23 20c-2,1 -2,1 -4,3 2,1 4,2 5,4 -4,5 -13,7 -13,14 0,4 7,5 11,6 1,1 3,1 4,2 1,0 2,0 2,0l5 2c4,2 7,3 12,3 1,4 0,2 2,3 3,1 3,2 5,3 2,1 2,0 5,2l8 3c7,4 4,8 6,17 1,2 1,1 2,3 1,2 1,4 4,6l5 6c1,1 0,0 2,2 1,0 1,0 2,1l2 2c3,2 11,7 14,8 1,4 1,1 7,4l6 4c5,3 10,2 6,12l-2 4c0,0 0,0 0,0 0,0 -1,0 -1,1l-1 2c-1,2 -1,1 -2,4 -2,3 -5,6 -7,10 -3,6 -4,4 -4,11 0,3 1,5 5,5 1,-5 6,-9 7,-15 6,1 5,3 7,7l-3 3c3,4 5,7 8,11 1,2 3,3 5,6l7 4c5,3 10,-1 15,-1 -4,5 -9,7 -12,10 1,3 1,1 1,4 5,0 5,-1 10,-1 -2,2 -2,2 -3,5l-6 8c-1,1 -1,2 -2,3 0,1 -1,1 -1,1 -5,4 -4,-1 -4,8 0,2 4,5 6,6 4,3 4,3 9,5 4,2 7,1 11,1 3,0 2,3 8,1 0,-6 1,-12 3,-17 4,0 15,2 15,7 4,0 3,0 10,5 8,8 14,15 24,21 1,0 1,0 2,1 0,6 -5,7 -5,14 10,0 15,-4 11,4 -3,5 -4,10 -1,15 1,2 1,3 4,3 -1,1 -1,1 -3,1 1,5 2,2 5,5 2,1 1,1 3,2l10 5c2,1 3,1 4,2 3,2 0,2 5,4 1,0 1,0 2,1 0,0 0,0 1,0l6 4c0,0 0,0 0,0l4 3c1,0 1,0 1,0l2 1c1,0 1,1 1,1l15 8c0,0 1,0 1,0 0,1 0,1 0,1 1,0 1,0 1,0 1,0 1,0 2,1l7 3c5,3 12,7 20,11 4,1 10,5 14,6l0 2c6,0 9,2 14,4 2,1 0,0 2,1l1 1c0,0 1,0 1,0l22 9c0,0 0,0 0,0 0,0 1,0 1,0 0,0 0,0 0,0l3 2c2,1 1,1 4,1l18 6c3,1 3,0 3,4 5,-1 7,0 13,2l22 7c5,1 7,3 9,4l19 4c1,0 1,0 1,0l20 5 0 2c4,0 1,-1 4,-1 1,0 1,1 4,2 10,1 4,-1 9,2 4,-1 0,-1 4,-1 8,2 3,4 17,0 3,0 2,0 5,-1 2,-1 1,-1 2,-1 2,-1 1,-2 3,-2 4,0 3,7 4,9 1,3 19,4 23,4 27,4 22,0 31,0 8,-1 17,-3 31,-3 12,0 26,0 36,2l25 3c7,1 3,2 14,2 6,0 11,-2 18,-2 4,0 5,-1 9,-2 10,0 10,-1 17,-2 2,0 2,0 4,0 0,0 2,-1 2,-1l11 -2c4,0 6,-1 8,-2l26 -5c3,0 3,0 5,0 1,-1 2,-1 4,-2l8 -2c3,0 1,0 4,-1l16 -4c4,-1 1,0 4,0 3,0 0,-3 11,-5l42 -15c4,-1 0,2 4,-1 2,-2 2,-2 4,-2l23 -10c2,-1 -3,1 1,0l32 -16c2,-1 2,-1 4,-2l5 -3c1,-1 0,0 2,-1l28 -16c1,-1 1,-1 2,-2 3,-2 7,-4 9,-8l2 -2c4,-2 12,-12 15,-14l15 -15c7,-6 13,-13 20,-19 3,-3 8,-7 11,-11l2 -3c2,-2 5,-4 7,-6 2,-3 4,-5 6,-8l4 -6c1,-1 1,-1 2,-2 4,-3 0,-3 7,-7 1,2 1,2 2,4 0,2 4,11 7,11 5,0 3,-3 3,-8 0,-7 1,-15 3,-20 2,-2 6,-15 8,-15 4,0 5,2 7,1 3,0 3,-3 4,-5l1 -3c2,-7 -2,-22 7,-31 3,-3 3,-3 7,-3 0,-4 -1,-6 2,-9 4,-5 15,-3 11,-15 -1,-3 0,-1 -1,-2 -2,-3 -2,-2 0,-4 0,0 0,0 0,0l7 2c0,0 0,0 0,0l6 1c0,-2 0,-1 1,-2 -2,-3 -4,-7 -1,-9 5,-6 23,2 23,-9 0,-7 -5,-5 -5,-9 0,-3 1,-4 3,-6 2,-2 3,-3 5,-4 5,-2 8,-3 9,-9l5 0 1 -6c1,-1 1,-1 2,-2 1,-2 2,-4 2,-7l2 0c0,-3 2,-3 4,-6 1,-3 0,-1 2,-4 2,-2 2,-3 2,-6 0,-2 -1,-1 -2,-2 -3,-2 -1,1 -3,-3 0,-1 0,0 0,-1l-4 -4c13,1 9,15 11,22 2,5 3,5 5,6 12,10 14,-9 17,-21l7 -22c0,0 0,0 0,0l19 -58c0,-2 0,-1 2,-4l6 -17c0,0 0,-1 0,-1l0 -2c0,0 0,0 1,0 0,-1 1,-2 1,-4l5 -13c1,-4 3,-9 5,-13l6 -22c1,-4 0,0 2,-4l15 -44c0,-2 1,-6 2,-9 2,-3 11,-7 15,-9 1,-1 0,-1 2,-1 8,-4 8,-6 8,-20 0,-6 0,-13 -4,-18 0,-2 -1,-4 -1,-6 3,-1 8,-2 11,-5 3,-2 5,-11 2,-14l-2 -2c-5,-5 -8,-8 -10,-14 -2,-3 1,-5 2,-7 5,0 7,8 13,8 4,0 3,-5 3,-7 0,-2 -3,-5 -3,-7 -3,-9 -1,-13 -3,-17 -1,-4 -2,-16 -2,-19 5,1 4,5 10,6 0,-5 -3,-5 -3,-9 -1,-4 -1,-7 -3,-10 3,-1 2,0 3,-3 1,-2 0,-1 1,-2 0,0 0,-1 0,-1 0,-1 0,-1 0,-1 0,0 0,0 0,0 2,-4 3,-7 4,-11 1,-6 -8,-18 5,-9 1,-4 3,-13 -2,-13 -5,0 -6,5 -8,9l-1 4c-5,13 -14,28 -19,38l-1 2c-1,2 -2,2 -3,3z"></path>
   </g>
  </g>
 </g>
</svg>
